<svg version="1.1" xmlns="http://www.w3.org/2000/svg" xmlns:xlink="http://www.w3.org/1999/xlink" width="48" height="48" viewBox="0,0,255.98958,255.98958"><g fill="none" fill-rule="nonzero" stroke="none" stroke-width="1" stroke-linecap="butt" stroke-linejoin="miter" stroke-miterlimit="10" stroke-dasharray="" stroke-dashoffset="0" font-family="none" font-weight="none" font-size="none" text-anchor="none" style="mix-blend-mode: normal"><g transform="translate(-0.00521,-0.00521) scale(5.33333,5.33333)"><path d="M42,37c0,2.762 -2.238,5 -5,5h-26c-2.761,0 -5,-2.238 -5,-5v-26c0,-2.762 2.239,-5 5,-5h26c2.762,0 5,2.238 5,5z" fill="#3f51b5"></path><path d="M16,14c-1.10457,0 -2,0.89543 -2,2c0,1.10457 0.89543,2 2,2c1.10457,0 2,-0.89543 2,-2c0,-1.10457 -0.89543,-2 -2,-2zM22.5,13c-1.38071,0 -2.5,1.11929 -2.5,2.5c0,1.38071 1.11929,2.5 2.5,2.5c1.38071,0 2.5,-1.11929 2.5,-2.5c0,-1.38071 -1.11929,-2.5 -2.5,-2.5zM30,12c-1.65685,0 -3,1.34315 -3,3c0,1.65685 1.34315,3 3,3c1.65685,0 3,-1.34315 3,-3c0,-1.65685 -1.34315,-3 -3,-3zM35,36v-8.5c0,-3.037 -2.463,-5.5 -5.5,-5.5c-3.037,0 -5.5,2.463 -5.5,5.5v8.5z" fill="#ffffff"></path><path d="M27,32v-7.16c0,-2.12 -1.79,-3.84 -4,-3.84c-2.208,0 -4,1.72 -4,3.84v7.16z" fill="#ffffff"></path><path d="M20,29v-5.25c0,-2.072 -1.568,-3.75 -3.5,-3.75c-1.934,0 -3.5,1.678 -3.5,3.75v5.25z" fill="#ffffff"></path></g></g></svg>