<?xml version="1.0" standalone="yes"?>
<svg xmlns="http://www.w3.org/2000/svg" width="2284" height="1158">
<path style="fill:#373435; stroke:none;" d="M0 0L0 1158L2284 1158L2284 0L0 0z"/>
<path style="fill:#ffffff; stroke:none;" d="M4 3L4 1155L2280 1155L2280 3L4 3z"/>
<path style="fill:#ed3337; stroke:none;" d="M549 365L549 667L604 667C604 661.301 606.586 647.166 602.972 642.603C599.362 638.045 580.563 641 575 641L575 391L638 391L638 666L796 666L796 561L678 561L678 587L770 587L770 640L664 640L664 365L549 365z"/>
<path style="fill:#373435; stroke:none;" d="M1174 471L1174 514L1154 514L1154 546L1174 546L1174 611C1174 622.77 1172.42 635.659 1176.03 647C1182.3 666.735 1201.16 675.59 1221 674.957C1232.72 674.583 1242.06 670.149 1253 667L1253 635C1242.17 638.096 1229.11 645.206 1218.33 637.517C1210.19 631.714 1212 620.687 1212 612L1212 546L1254 546L1254 514L1212 514L1212 471L1174 471M973 644C967.247 640.194 957.926 627.328 951 627.191C944.296 627.059 934.032 638.657 927 641.135C898.922 651.028 871.062 636.291 865 607L979 607C984.992 574.726 970.085 535.71 941 519.44C899.664 496.316 844.429 519.968 831.144 565C820.851 599.892 829.538 640.275 861 661.48C887.427 679.292 926.027 680.862 953 663.305C960.326 658.536 969.25 652.042 973 644M1036 536L1036 514L998 514L998 672L1036 672L1036 604C1036 591.316 1034.76 576.925 1039.88 565C1048.46 545.013 1078.99 537.781 1093.84 555.289C1103.52 566.701 1102 581.048 1102 595L1102 672L1141 672L1141 595C1141 578.148 1142.02 560.026 1135.93 544C1125.1 515.45 1090.8 503.222 1063 514.453C1051.78 518.985 1044 527.314 1036 536M1331 511.428C1264.09 521.01 1231.51 610.608 1287.01 655.714C1295.07 662.258 1304.15 667.661 1314 670.996C1327.31 675.504 1342.11 676.517 1356 674.711C1365.85 673.431 1375.27 669.827 1384 665.219C1448.52 631.156 1436.4 535.852 1369 514.344C1357.19 510.574 1343.29 509.668 1331 511.428M1449 625L1433 652C1440.06 654.971 1446.12 660.182 1453 663.63C1469.28 671.791 1488.78 676.165 1507 674.911C1538.65 672.731 1572.17 643.399 1556.65 609C1542.08 576.71 1501.84 585.842 1480.21 564.671C1472.63 557.243 1477.14 547.104 1486 543.482C1494.98 539.812 1507.1 542.201 1516 545.029C1524.9 547.859 1533 553.94 1542 556L1556 529C1532.69 516.738 1508.77 507.478 1482 512.808C1453.16 518.551 1431.32 549.171 1444.52 578C1453.44 597.475 1478.4 603.676 1497 609.28C1505.04 611.702 1514.78 613.857 1520.78 620.185C1532.8 632.871 1515.33 643.212 1504 644.557C1482.7 647.087 1467.01 632.575 1449 625M1716 644C1709.87 640.167 1701.18 627.6 1694 627.117C1687.36 626.671 1676.87 638.69 1670 641.134C1641.92 651.121 1614.06 636.295 1608 607L1722 607C1726.18 573.909 1714.46 538.101 1685 520.069C1639.81 492.41 1582.98 524.826 1571.89 573C1563.33 610.15 1579.12 650.212 1614 667.395C1638.98 679.7 1671.34 678.199 1695 663.796C1702.72 659.095 1712.15 652.387 1716 644z"/>
<path style="fill:#ffffff; stroke:none;" d="M864 581L942 581C940.775 552.883 911.368 531.142 885.001 546.464C871.748 554.166 867.606 567.066 864 581M1607 581L1685 581C1683.75 552.354 1653.33 530.985 1627 546.93C1614.4 554.562 1610.46 567.647 1607 581M1335 544.439C1295.48 550.66 1284.44 604.686 1312.09 630.816C1322.79 640.927 1337.82 643.794 1352 641.701C1410.76 633.026 1394.91 535.009 1335 544.439z"/>
<path style="fill:#373435; stroke:none;" d="M603 641L604 642L603 641z"/>
<path style="fill:#ed3337; stroke:none;" d="M1113 700L1113 782L1721 782L1721 700L1113 700z"/>
<path style="fill:#f15b5f; stroke:none;" d="M1156 719L1156 720L1160 720L1156 719M1214 719L1214 720L1218 720L1214 719M1272 719L1272 720L1276 720L1272 719M1471 719L1472 720L1471 719z"/>
<path style="fill:#f79d9f; stroke:none;" d="M1472 719L1472 720L1479 720L1472 719z"/>
<path style="fill:#f15b5f; stroke:none;" d="M1479 719L1480 720L1479 719M1510.67 719.333L1511.33 719.667L1510.67 719.333z"/>
<path style="fill:#f79d9f; stroke:none;" d="M1512 719L1512 720L1517 720L1512 719z"/>
<path style="fill:#f15b5f; stroke:none;" d="M1517.67 719.333L1518.33 719.667L1517.67 719.333M1595.67 719.333L1596.33 719.667L1595.67 719.333z"/>
<path style="fill:#f79d9f; stroke:none;" d="M1597 719L1597 720L1604 720L1597 719z"/>
<path style="fill:#f15b5f; stroke:none;" d="M1604 719L1605 720L1604 719M1634 719L1635 720L1634 719z"/>
<path style="fill:#f79d9f; stroke:none;" d="M1635 719L1635 720L1642 720L1635 719z"/>
<path style="fill:#f15b5f; stroke:none;" d="M1642 719L1643 720L1642 719z"/>
<path style="fill:#f79d9f; stroke:none;" d="M1129 720L1130 721L1129 720z"/>
<path style="fill:#ffffff; stroke:none;" d="M1130 720L1143 759C1152.64 758.251 1154.6 739.66 1158 732L1167 759C1177.72 758.167 1183.02 729.158 1186 720C1175.49 720.345 1172.9 739.439 1170 748C1166.53 740.173 1164.97 720.774 1155 720L1146 748C1142.32 739.69 1140.84 720.361 1130 720z"/>
<path style="fill:#f15b5f; stroke:none;" d="M1136 720L1137 721L1136 720z"/>
<path style="fill:#f79d9f; stroke:none;" d="M1160 720L1161 721L1160 720M1179 720L1180 721L1179 720z"/>
<path style="fill:#f15b5f; stroke:none;" d="M1187 720L1188 721L1187 720z"/>
<path style="fill:#ffffff; stroke:none;" d="M1188 720L1201 759C1211.12 758.214 1212.53 739.826 1216 732L1225 759C1235.59 758.177 1241.49 729.201 1244 720C1232.86 720.365 1231.78 739.467 1228 748L1220.67 727.001L1216 720.636L1211.33 727.001L1204 748C1200.22 739.467 1199.14 720.365 1188 720z"/>
<path style="fill:#f79d9f; stroke:none;" d="M1194 720L1195 721L1194 720M1213 720L1214 721L1213 720M1218 720L1219 721L1218 720M1237 720L1238 721L1237 720z"/>
<path style="fill:#f15b5f; stroke:none;" d="M1244.67 720.333L1245.33 720.667L1244.67 720.333z"/>
<path style="fill:#ffffff; stroke:none;" d="M1246 720L1259 759L1265 759L1274 732L1283 759L1289 759L1302 720C1291.03 720.365 1289.7 739.643 1286 748L1278.67 727.001L1274 720.636L1269.33 727.001L1262 748C1258.7 739.44 1256.79 720.354 1246 720z"/>
<path style="fill:#f79d9f; stroke:none;" d="M1252 720L1253 721L1252 720M1271 720L1272 721L1271 720M1276 720L1277 721L1276 720M1295.33 720.667L1295.67 721.333L1295.33 720.667z"/>
<path style="fill:#f15b5f; stroke:none;" d="M1302 720L1303 721L1302 720z"/>
<path style="fill:#ffffff; stroke:none;" d="M1315 720L1315 759L1342 759L1342 753L1321 753L1321 720L1315 720z"/>
<path style="fill:#f79d9f; stroke:none;" d="M1321 720L1321 753L1322 753L1321 720z"/>
<path style="fill:#ffffff; stroke:none;" d="M1348 720L1348 759L1377 759L1377 754C1364.65 754 1354 757.236 1354 742L1374 742L1374 737L1354 737L1354 726C1361.09 726 1376.26 729.448 1377 720L1348 720z"/>
<path style="fill:#f79d9f; stroke:none;" d="M1383 720L1383 759L1384 759C1384 747.828 1387.31 730.274 1383 720z"/>
<path style="fill:#ffffff; stroke:none;" d="M1384 720L1384 759L1389 759L1389 731C1396.56 738.901 1405.38 758.121 1417 759L1417 720L1411 720L1411 747C1402.72 739.76 1395.74 720.892 1384 720z"/>
<path style="fill:#f15b5f; stroke:none;" d="M1389 720L1390 721L1389 720M1410 720L1410 747L1411 747L1410 720z"/>
<path style="fill:#f79d9f; stroke:none;" d="M1422 720L1422 726L1423 726L1422 720z"/>
<path style="fill:#ffffff; stroke:none;" d="M1423 720L1423 726L1435 726L1435 759L1441 759L1441 726L1453 726L1453 720L1423 720z"/>
<path style="fill:#f79d9f; stroke:none;" d="M1453 720L1453 726L1454 726L1453 720z"/>
<path style="fill:#f15b5f; stroke:none;" d="M1467 720L1468 721L1467 720z"/>
<path style="fill:#f79d9f; stroke:none;" d="M1468 720L1469 721L1468 720z"/>
<path style="fill:#ffffff; stroke:none;" d="M1469 720.638C1444.7 727.661 1457.18 766.353 1482 758.365C1505.91 750.669 1493.42 713.58 1469 720.638z"/>
<path style="fill:#f79d9f; stroke:none;" d="M1481.67 720.333L1482.33 720.667L1481.67 720.333z"/>
<path style="fill:#f15b5f; stroke:none;" d="M1507 720L1508 721L1507 720z"/>
<path style="fill:#f79d9f; stroke:none;" d="M1508 720L1509 721L1508 720z"/>
<path style="fill:#ffffff; stroke:none;" d="M1528 724C1520.07 719.947 1503.65 715.987 1501.36 729.001C1498.63 744.465 1520.75 737.858 1522.08 748.029C1523.75 760.848 1501.77 746.854 1500.92 752.073C1500.38 755.41 1505.57 757.466 1508 758.2C1514.47 760.157 1524.26 759.768 1527.68 752.981C1532.72 742.995 1522.49 738.669 1515 736.275C1512.24 735.392 1507.43 733.799 1507.92 730.025C1509.29 719.605 1523.94 731.85 1528 724z"/>
<path style="fill:#f79d9f; stroke:none;" d="M1520 720L1521 721L1520 720z"/>
<path style="fill:#f15b5f; stroke:none;" d="M1521 720L1522 721L1521 720z"/>
<path style="fill:#f79d9f; stroke:none;" d="M1535 720L1535 759L1536 759C1536 747.828 1539.31 730.274 1535 720z"/>
<path style="fill:#ffffff; stroke:none;" d="M1536 720L1536 759L1564 759L1564 754L1542 754L1542 742L1562 742L1562 737L1542 737L1542 726L1564 726L1564 720L1536 720z"/>
<path style="fill:#f79d9f; stroke:none;" d="M1564 720L1564 726L1565 726L1564 720z"/>
<path style="fill:#f15b5f; stroke:none;" d="M1592 720L1593 721L1592 720z"/>
<path style="fill:#f79d9f; stroke:none;" d="M1593 720L1594 721L1593 720z"/>
<path style="fill:#ffffff; stroke:none;" d="M1616 753C1609.88 745.905 1600.63 757.897 1592.1 750.606C1583.68 743.392 1586.07 729.09 1597 725.808C1602.34 724.204 1605.19 727.551 1609.98 728.778C1611.94 729.279 1614.45 728.568 1614.08 726.042C1612.39 714.592 1589.88 720.923 1585.39 726.105C1577.24 735.498 1580.04 753.043 1592 757.856C1600.67 761.344 1609.01 758.332 1616 753z"/>
<path style="fill:#f79d9f; stroke:none;" d="M1607 720L1608 721L1607 720z"/>
<path style="fill:#f15b5f; stroke:none;" d="M1630 720L1631 721L1630 720z"/>
<path style="fill:#f79d9f; stroke:none;" d="M1631 720L1632 721L1631 720z"/>
<path style="fill:#ffffff; stroke:none;" d="M1632 720.638C1607.63 727.682 1620.15 766.363 1645 758.365C1668.91 750.669 1656.42 713.58 1632 720.638z"/>
<path style="fill:#f79d9f; stroke:none;" d="M1644.67 720.333L1645.33 720.667L1644.67 720.333z"/>
<path style="fill:#ffffff; stroke:none;" d="M1665 720L1665 759L1671 759L1671 732L1672 732L1683 749L1697 732L1697 759L1702 759L1702 720C1693.59 720.639 1687.75 731.751 1685 739L1683 739C1679.44 731.478 1674.15 720.299 1665 720z"/>
<path style="fill:#f15b5f; stroke:none;" d="M1671 720L1672 721L1671 720z"/>
<path style="fill:#f79d9f; stroke:none;" d="M1696 720L1697 721L1696 720M1702 720L1702 759L1703 759C1703 747.828 1706.31 730.274 1702 720M1136 721L1137 722L1136 721z"/>
<path style="fill:#f15b5f; stroke:none;" d="M1154 721L1155 722L1154 721z"/>
<path style="fill:#f79d9f; stroke:none;" d="M1185 721L1186 722L1185 721z"/>
<path style="fill:#f15b5f; stroke:none;" d="M1390 721L1391 722L1390 721M1465 721L1466 722L1465 721z"/>
<path style="fill:#f79d9f; stroke:none;" d="M1466 721L1467 722L1466 721M1484 721L1485 722L1484 721z"/>
<path style="fill:#f15b5f; stroke:none;" d="M1505 721L1506 722L1505 721z"/>
<path style="fill:#f79d9f; stroke:none;" d="M1506 721L1507 722L1506 721M1523 721L1524 722L1523 721z"/>
<path style="fill:#f15b5f; stroke:none;" d="M1590 721L1591 722L1590 721z"/>
<path style="fill:#f79d9f; stroke:none;" d="M1591 721L1592 722L1591 721M1609 721L1610 722L1609 721z"/>
<path style="fill:#f15b5f; stroke:none;" d="M1610 721L1611 722L1610 721M1628 721L1629 722L1628 721z"/>
<path style="fill:#f79d9f; stroke:none;" d="M1629 721L1630 722L1629 721M1647 721L1648 722L1647 721z"/>
<path style="fill:#f15b5f; stroke:none;" d="M1695 721L1696 722L1695 721z"/>
<path style="fill:#f79d9f; stroke:none;" d="M1130.33 722.667L1130.67 723.333L1130.33 722.667M1154 722L1155 723L1154 722z"/>
<path style="fill:#f15b5f; stroke:none;" d="M1161 722L1162 723L1161 722M1178 722L1179 723L1178 722M1185 722L1186 723L1185 722z"/>
<path style="fill:#f79d9f; stroke:none;" d="M1188 722L1189 723L1188 722z"/>
<path style="fill:#f15b5f; stroke:none;" d="M1195 722L1196 723L1195 722M1212 722L1213 723L1212 722M1219 722L1220 723L1219 722M1236 722L1237 723L1236 722z"/>
<path style="fill:#f79d9f; stroke:none;" d="M1243 722L1244 723L1243 722M1246 722L1247 723L1246 722z"/>
<path style="fill:#f15b5f; stroke:none;" d="M1253 722L1254 723L1253 722M1270 722L1271 723L1270 722z"/>
<path style="fill:#f79d9f; stroke:none;" d="M1277.33 722.667L1277.67 723.333L1277.33 722.667M1301 722L1302 723L1301 722M1464 722L1465 723L1464 722z"/>
<path style="fill:#f15b5f; stroke:none;" d="M1486 722L1487 723L1486 722M1504 722L1505 723L1504 722M1525 722L1526 723L1525 722z"/>
<path style="fill:#f79d9f; stroke:none;" d="M1589 722L1590 723L1589 722M1611 722L1612 723L1611 722M1627 722L1628 723L1627 722z"/>
<path style="fill:#f15b5f; stroke:none;" d="M1649 722L1650 723L1649 722z"/>
<path style="fill:#f79d9f; stroke:none;" d="M1672 722L1673 723L1672 722M1137.33 723.667L1137.67 724.333L1137.33 723.667M1161 723L1162 724L1161 723M1178 723L1179 724L1178 723z"/>
<path style="fill:#f15b5f; stroke:none;" d="M1188 723L1189 724L1188 723z"/>
<path style="fill:#f79d9f; stroke:none;" d="M1195 723L1196 724L1195 723M1212 723L1213 724L1212 723M1219 723L1220 724L1219 723M1236 723L1237 724L1236 723z"/>
<path style="fill:#f15b5f; stroke:none;" d="M1246 723L1247 724L1246 723z"/>
<path style="fill:#f79d9f; stroke:none;" d="M1253 723L1254 724L1253 723M1270 723L1271 724L1270 723M1294.33 723.667L1294.67 724.333L1294.33 723.667z"/>
<path style="fill:#f15b5f; stroke:none;" d="M1301 723L1302 724L1301 723z"/>
<path style="fill:#f79d9f; stroke:none;" d="M1391 723L1392 724L1391 723z"/>
<path style="fill:#f15b5f; stroke:none;" d="M1462 723L1463 724L1462 723z"/>
<path style="fill:#f79d9f; stroke:none;" d="M1487 723L1488 724L1487 723z"/>
<path style="fill:#f15b5f; stroke:none;" d="M1503 723L1504 724L1503 723z"/>
<path style="fill:#f79d9f; stroke:none;" d="M1526 723L1527 724L1526 723z"/>
<path style="fill:#f15b5f; stroke:none;" d="M1587 723L1588 724L1587 723M1613 723L1614 724L1613 723M1625 723L1626 724L1625 723z"/>
<path style="fill:#f79d9f; stroke:none;" d="M1650 723L1651 724L1650 723z"/>
<path style="fill:#f15b5f; stroke:none;" d="M1673 723L1674 724L1673 723z"/>
<path style="fill:#f79d9f; stroke:none;" d="M1694 723L1695 724L1694 723M1184 724L1185 725L1184 724M1242.33 724.667L1242.67 725.333L1242.33 724.667M1392 724L1393 725L1392 724z"/>
<path style="fill:#f15b5f; stroke:none;" d="M1461 724L1462 725L1461 724M1502 724L1503 725L1502 724M1528 724L1529 725L1528 724M1586 724L1587 725L1586 724M1614 724L1615 725L1614 724M1624 724L1625 725L1624 724M1693 724L1694 725L1693 724z"/>
<path style="fill:#f79d9f; stroke:none;" d="M1131 725L1132 726L1131 725M1153.33 725.667L1153.67 726.333L1153.33 725.667z"/>
<path style="fill:#f15b5f; stroke:none;" d="M1162 725L1163 726L1162 725M1177 725L1178 726L1177 725M1184 725L1185 726L1184 725z"/>
<path style="fill:#f79d9f; stroke:none;" d="M1189 725L1190 726L1189 725z"/>
<path style="fill:#f15b5f; stroke:none;" d="M1196 725L1197 726L1196 725M1211 725L1212 726L1211 725M1220 725L1221 726L1220 725M1235 725L1236 726L1235 725z"/>
<path style="fill:#f79d9f; stroke:none;" d="M1247 725L1248 726L1247 725z"/>
<path style="fill:#f15b5f; stroke:none;" d="M1254 725L1255 726L1254 725M1269 725L1270 726L1269 725z"/>
<path style="fill:#f79d9f; stroke:none;" d="M1278.33 725.667L1278.67 726.333L1278.33 725.667M1300 725L1301 726L1300 725M1376 725L1377 726L1376 725z"/>
<path style="fill:#f15b5f; stroke:none;" d="M1393 725L1394 726L1393 725M1460 725L1461 726L1460 725z"/>
<path style="fill:#f79d9f; stroke:none;" d="M1472.67 725.333L1473.33 725.667L1472.67 725.333z"/>
<path style="fill:#f15b5f; stroke:none;" d="M1474.67 725.333L1475.33 725.667L1474.67 725.333z"/>
<path style="fill:#f79d9f; stroke:none;" d="M1476 725L1476 726L1479 726L1476 725M1511.67 725.333L1512.33 725.667L1511.67 725.333z"/>
<path style="fill:#f15b5f; stroke:none;" d="M1513 725L1513 726L1516 726L1513 725z"/>
<path style="fill:#f79d9f; stroke:none;" d="M1516.67 725.333L1517.33 725.667L1516.67 725.333z"/>
<path style="fill:#f15b5f; stroke:none;" d="M1585 725L1586 726L1585 725z"/>
<path style="fill:#f79d9f; stroke:none;" d="M1597.67 725.333L1598.33 725.667L1597.67 725.333z"/>
<path style="fill:#f15b5f; stroke:none;" d="M1599.67 725.333L1600.33 725.667L1599.67 725.333z"/>
<path style="fill:#f79d9f; stroke:none;" d="M1601 725L1601 726L1604 726L1601 725z"/>
<path style="fill:#f15b5f; stroke:none;" d="M1615 725L1616 726L1615 725M1623 725L1624 726L1623 725z"/>
<path style="fill:#f79d9f; stroke:none;" d="M1635.67 725.333L1636.33 725.667L1635.67 725.333z"/>
<path style="fill:#f15b5f; stroke:none;" d="M1637.67 725.333L1638.33 725.667L1637.67 725.333z"/>
<path style="fill:#f79d9f; stroke:none;" d="M1639 725L1639 726L1642 726L1639 725M1674 725L1675 726L1674 725z"/>
<path style="fill:#f15b5f; stroke:none;" d="M1131 726L1132 727L1131 726z"/>
<path style="fill:#f79d9f; stroke:none;" d="M1138.33 726.667L1138.67 727.333L1138.33 726.667M1162 726L1163 727L1162 726M1177 726L1178 727L1177 726z"/>
<path style="fill:#f15b5f; stroke:none;" d="M1189 726L1190 727L1189 726z"/>
<path style="fill:#f79d9f; stroke:none;" d="M1196 726L1197 727L1196 726M1211 726L1212 727L1211 726M1220 726L1221 727L1220 726M1235 726L1236 727L1235 726z"/>
<path style="fill:#f15b5f; stroke:none;" d="M1247 726L1248 727L1247 726z"/>
<path style="fill:#f79d9f; stroke:none;" d="M1254 726L1255 727L1254 726M1269 726L1270 727L1269 726M1293 726L1294 727L1293 726z"/>
<path style="fill:#f15b5f; stroke:none;" d="M1300 726L1301 727L1300 726M1354 726L1354 736L1355 736L1354 726M1441 726L1441 759L1442 759L1441 726M1459 726L1460 727L1459 726z"/>
<path style="fill:#f79d9f; stroke:none;" d="M1469 726L1470 727L1469 726z"/>
<path style="fill:#f15b5f; stroke:none;" d="M1470 726L1471 727L1470 726z"/>
<path style="fill:#ed3337; stroke:none;" d="M1471 726.653C1454.54 731.833 1463.15 757.701 1480 752.347C1495.42 747.445 1487.28 721.527 1471 726.653z"/>
<path style="fill:#f79d9f; stroke:none;" d="M1480 726L1481 727L1480 726M1490 726L1491 727L1490 726z"/>
<path style="fill:#f15b5f; stroke:none;" d="M1501 726L1502 727L1501 726M1509 726L1510 727L1509 726M1519 726L1520 727L1519 726M1527 726L1528 727L1527 726M1584 726L1585 727L1584 726z"/>
<path style="fill:#f79d9f; stroke:none;" d="M1594 726L1595 727L1594 726z"/>
<path style="fill:#f15b5f; stroke:none;" d="M1595 726L1596 727L1595 726z"/>
<path style="fill:#f79d9f; stroke:none;" d="M1605 726L1606 727L1605 726M1615 726L1616 727L1615 726z"/>
<path style="fill:#f15b5f; stroke:none;" d="M1622 726L1623 727L1622 726z"/>
<path style="fill:#f79d9f; stroke:none;" d="M1632 726L1633 727L1632 726z"/>
<path style="fill:#f15b5f; stroke:none;" d="M1633 726L1634 727L1633 726z"/>
<path style="fill:#ed3337; stroke:none;" d="M1634 726.653C1617.58 731.821 1626.07 757.793 1642.99 752.347C1658.39 747.389 1650.28 721.527 1634 726.653z"/>
<path style="fill:#f79d9f; stroke:none;" d="M1643 726L1644 727L1643 726M1653 726L1654 727L1653 726z"/>
<path style="fill:#f15b5f; stroke:none;" d="M1675 726L1676 727L1675 726z"/>
<path style="fill:#f79d9f; stroke:none;" d="M1692 726L1693 727L1692 726M1183 727L1184 728L1183 727M1241 727L1242 728L1241 727M1299.33 727.667L1299.67 728.333L1299.33 727.667M1394 727L1395 728L1394 727M1467 727L1468 728L1467 727z"/>
<path style="fill:#f15b5f; stroke:none;" d="M1468 727L1469 728L1468 727z"/>
<path style="fill:#f79d9f; stroke:none;" d="M1482 727L1483 728L1482 727M1491 727L1492 728L1491 727M1501 727L1502 728L1501 727z"/>
<path style="fill:#f15b5f; stroke:none;" d="M1508 727L1509 728L1508 727M1521 727L1522 728L1521 727z"/>
<path style="fill:#f79d9f; stroke:none;" d="M1526 727L1527 728L1526 727M1592 727L1593 728L1592 727M1607 727L1608 728L1607 727M1630 727L1631 728L1630 727z"/>
<path style="fill:#f15b5f; stroke:none;" d="M1631 727L1632 728L1631 727z"/>
<path style="fill:#f79d9f; stroke:none;" d="M1645 727L1646 728L1645 727M1654 727L1655 728L1654 727z"/>
<path style="fill:#f15b5f; stroke:none;" d="M1691 727L1692 728L1691 727z"/>
<path style="fill:#f79d9f; stroke:none;" d="M1132 728L1133 729L1132 728M1152.33 728.667L1152.67 729.333L1152.33 728.667z"/>
<path style="fill:#f15b5f; stroke:none;" d="M1163 728L1164 729L1163 728M1176 728L1177 729L1176 728M1183 728L1184 729L1183 728z"/>
<path style="fill:#f79d9f; stroke:none;" d="M1190 728L1191 729L1190 728z"/>
<path style="fill:#f15b5f; stroke:none;" d="M1197 728L1198 729L1197 728M1210 728L1211 729L1210 728M1221 728L1222 729L1221 728M1234 728L1235 729L1234 728M1241 728L1242 729L1241 728z"/>
<path style="fill:#f79d9f; stroke:none;" d="M1248 728L1249 729L1248 728z"/>
<path style="fill:#f15b5f; stroke:none;" d="M1255 728L1256 729L1255 728M1268 728L1269 729L1268 728z"/>
<path style="fill:#f79d9f; stroke:none;" d="M1279.33 728.667L1279.67 729.333L1279.33 728.667z"/>
<path style="fill:#f15b5f; stroke:none;" d="M1292 728L1293 729L1292 728z"/>
<path style="fill:#f79d9f; stroke:none;" d="M1395 728L1396 729L1395 728M1458 728L1459 729L1458 728M1466 728L1467 729L1466 728z"/>
<path style="fill:#f15b5f; stroke:none;" d="M1483 728L1484 729L1483 728M1492 728L1493 729L1492 728z"/>
<path style="fill:#f79d9f; stroke:none;" d="M1507 728L1508 729L1507 728M1523 728L1524 729L1523 728M1525 728L1526 729L1525 728M1583 728L1584 729L1583 728M1591 728L1592 729L1591 728z"/>
<path style="fill:#f15b5f; stroke:none;" d="M1608 728L1609 729L1608 728z"/>
<path style="fill:#f79d9f; stroke:none;" d="M1621 728L1622 729L1621 728M1629 728L1630 729L1629 728z"/>
<path style="fill:#f15b5f; stroke:none;" d="M1646 728L1647 729L1646 728M1655 728L1656 729L1655 728z"/>
<path style="fill:#f79d9f; stroke:none;" d="M1676 728L1677 729L1676 728z"/>
<path style="fill:#f15b5f; stroke:none;" d="M1132 729L1133 730L1132 729z"/>
<path style="fill:#f79d9f; stroke:none;" d="M1139 729L1140 730L1139 729M1163 729L1164 730L1163 729M1176 729L1177 730L1176 729z"/>
<path style="fill:#f15b5f; stroke:none;" d="M1190 729L1191 730L1190 729z"/>
<path style="fill:#f79d9f; stroke:none;" d="M1197 729L1198 730L1197 729M1210 729L1211 730L1210 729M1221 729L1222 730L1221 729M1234 729L1235 730L1234 729M1255 729L1256 730L1255 729M1268 729L1269 730L1268 729M1292 729L1293 730L1292 729z"/>
<path style="fill:#f15b5f; stroke:none;" d="M1396 729L1397 730L1396 729z"/>
<path style="fill:#f79d9f; stroke:none;" d="M1465 729L1466 730L1465 729z"/>
<path style="fill:#f15b5f; stroke:none;" d="M1484 729L1485 730L1484 729z"/>
<path style="fill:#f79d9f; stroke:none;" d="M1492 729L1493 730L1492 729z"/>
<path style="fill:#f15b5f; stroke:none;" d="M1500 729L1500 732L1501 732L1500 729M1507 729L1508 730L1507 729z"/>
<path style="fill:#f79d9f; stroke:none;" d="M1524 729L1525 730L1524 729z"/>
<path style="fill:#f15b5f; stroke:none;" d="M1582 729L1583 730L1582 729z"/>
<path style="fill:#f79d9f; stroke:none;" d="M1590 729L1591 730L1590 729M1610 729L1611 730L1610 729z"/>
<path style="fill:#f15b5f; stroke:none;" d="M1620 729L1621 730L1620 729z"/>
<path style="fill:#f79d9f; stroke:none;" d="M1628 729L1629 730L1628 729z"/>
<path style="fill:#f15b5f; stroke:none;" d="M1647 729L1648 730L1647 729z"/>
<path style="fill:#f79d9f; stroke:none;" d="M1655 729L1656 730L1655 729z"/>
<path style="fill:#f15b5f; stroke:none;" d="M1677 729L1678 730L1677 729z"/>
<path style="fill:#f79d9f; stroke:none;" d="M1690 729L1691 730L1690 729M1182 730L1183 731L1182 730M1240 730L1241 731L1240 730M1249.33 730.667L1249.67 731.333L1249.33 730.667M1298 730L1299 731L1298 730z"/>
<path style="fill:#f15b5f; stroke:none;" d="M1397 730L1398 731L1397 730z"/>
<path style="fill:#f79d9f; stroke:none;" d="M1457 730L1458 731L1457 730M1464 730L1465 731L1464 730z"/>
<path style="fill:#f15b5f; stroke:none;" d="M1485 730L1486 731L1485 730M1493 730L1494 731L1493 730z"/>
<path style="fill:#f79d9f; stroke:none;" d="M1582 730L1583 731L1582 730M1589 730L1590 731L1589 730M1611 730L1612 731L1611 730z"/>
<path style="fill:#f15b5f; stroke:none;" d="M1612 730L1613 731L1612 730z"/>
<path style="fill:#f79d9f; stroke:none;" d="M1620 730L1621 731L1620 730M1627 730L1628 731L1627 730z"/>
<path style="fill:#f15b5f; stroke:none;" d="M1648 730L1649 731L1648 730M1656 730L1657 731L1656 730M1689 730L1690 731L1689 730z"/>
<path style="fill:#f79d9f; stroke:none;" d="M1133 731L1134 732L1133 731z"/>
<path style="fill:#f15b5f; stroke:none;" d="M1140 731L1141 732L1140 731z"/>
<path style="fill:#f79d9f; stroke:none;" d="M1151.33 731.667L1151.67 732.333L1151.33 731.667z"/>
<path style="fill:#f15b5f; stroke:none;" d="M1164 731L1165 732L1164 731M1175 731L1176 732L1175 731M1182 731L1183 732L1182 731z"/>
<path style="fill:#f79d9f; stroke:none;" d="M1191 731L1192 732L1191 731z"/>
<path style="fill:#f15b5f; stroke:none;" d="M1198 731L1199 732L1198 731M1209 731L1210 732L1209 731M1222 731L1223 732L1222 731M1233 731L1234 732L1233 731M1240 731L1241 732L1240 731M1256 731L1257 732L1256 731M1267 731L1268 732L1267 731M1280 731L1281 732L1280 731M1291 731L1292 732L1291 731M1298 731L1299 732L1298 731z"/>
<path style="fill:#f79d9f; stroke:none;" d="M1389 731L1389 759L1390 759L1389 731M1486 731L1487 732L1486 731M1493 731L1494 732L1493 731z"/>
<path style="fill:#f15b5f; stroke:none;" d="M1507 731L1508 732L1507 731M1581 731L1582 732L1581 731z"/>
<path style="fill:#f79d9f; stroke:none;" d="M1649 731L1650 732L1649 731M1656 731L1657 732L1656 731M1678 731L1679 732L1678 731z"/>
<path style="fill:#f15b5f; stroke:none;" d="M1133 732L1134 733L1133 732z"/>
<path style="fill:#f79d9f; stroke:none;" d="M1140 732L1141 733L1140 732M1157 732L1159 734L1157 732M1164 732L1165 733L1164 732M1175 732L1176 733L1175 732M1198 732L1199 733L1198 732M1209 732L1210 733L1209 732M1215 732L1217 734L1215 732M1222 732L1223 733L1222 732M1233 732L1234 733L1233 732M1256 732L1257 733L1256 732M1267 732L1268 733L1267 732M1273.67 732.333L1274.33 732.667L1273.67 732.333M1280 732L1281 733L1280 732M1291 732L1292 733L1291 732z"/>
<path style="fill:#f15b5f; stroke:none;" d="M1390 732L1391 733L1390 732z"/>
<path style="fill:#f79d9f; stroke:none;" d="M1398 732L1399 733L1398 732M1456.33 732.667L1456.67 733.333L1456.33 732.667M1463 732L1464 733L1463 732M1507 732L1508 733L1507 732M1581 732L1582 733L1581 732M1588 732L1589 733L1588 732M1619 732L1620 733L1619 732M1626 732L1627 733L1626 732z"/>
<path style="fill:#f15b5f; stroke:none;" d="M1671 732L1671 759L1672 759L1671 732M1679 732L1680 733L1679 732z"/>
<path style="fill:#f79d9f; stroke:none;" d="M1688 732L1689 733L1688 732M1695 732L1696 759L1697 759C1697 752.68 1699.87 736.259 1695 732z"/>
<path style="fill:#f15b5f; stroke:none;" d="M1157 733L1158 734L1157 733z"/>
<path style="fill:#f79d9f; stroke:none;" d="M1181 733L1182 734L1181 733M1192.33 733.667L1192.67 734.333L1192.33 733.667z"/>
<path style="fill:#f15b5f; stroke:none;" d="M1215 733L1216 734L1215 733z"/>
<path style="fill:#f79d9f; stroke:none;" d="M1239 733L1240 734L1239 733M1250 733L1251 734L1250 733z"/>
<path style="fill:#f15b5f; stroke:none;" d="M1273.67 733.333L1274.33 733.667L1273.67 733.333z"/>
<path style="fill:#f79d9f; stroke:none;" d="M1297 733L1298 734L1297 733z"/>
<path style="fill:#f15b5f; stroke:none;" d="M1391 733L1392 734L1391 733z"/>
<path style="fill:#f79d9f; stroke:none;" d="M1399 733L1400 734L1399 733M1487 733L1488 734L1487 733M1494.33 733.667L1494.67 734.333L1494.33 733.667M1508 733L1509 734L1508 733M1650 733L1651 734L1650 733z"/>
<path style="fill:#f15b5f; stroke:none;" d="M1657 733L1658 734L1657 733z"/>
<path style="fill:#f79d9f; stroke:none;" d="M1672 733L1673 734L1672 733z"/>
<path style="fill:#f15b5f; stroke:none;" d="M1687 733L1688 734L1687 733z"/>
<path style="fill:#f79d9f; stroke:none;" d="M1134 734L1135 735L1134 734z"/>
<path style="fill:#f15b5f; stroke:none;" d="M1141 734L1142 735L1141 734z"/>
<path style="fill:#f79d9f; stroke:none;" d="M1150.33 734.667L1150.67 735.333L1150.33 734.667z"/>
<path style="fill:#f15b5f; stroke:none;" d="M1158 734L1159 735L1158 734M1165 734L1166 735L1165 734M1174 734L1175 735L1174 734M1181 734L1182 735L1181 734M1199 734L1200 735L1199 734M1208 734L1209 735L1208 734M1216 734L1217 735L1216 734M1223 734L1224 735L1223 734M1232 734L1233 735L1232 734M1239 734L1240 735L1239 734M1250 734L1251 735L1250 734M1257 734L1258 735L1257 734M1266 734L1267 735L1266 734M1281 734L1282 735L1281 734M1290 734L1291 735L1290 734M1297 734L1298 735L1297 734z"/>
<path style="fill:#f79d9f; stroke:none;" d="M1392 734L1393 735L1392 734z"/>
<path style="fill:#f15b5f; stroke:none;" d="M1400 734L1401 735L1400 734z"/>
<path style="fill:#f79d9f; stroke:none;" d="M1462 734L1463 735L1462 734M1501 734L1502 735L1501 734M1509 734L1510 735L1509 734z"/>
<path style="fill:#f15b5f; stroke:none;" d="M1510 734L1511 735L1510 734z"/>
<path style="fill:#f79d9f; stroke:none;" d="M1587 734L1588 735L1587 734M1625 734L1626 735L1625 734M1657 734L1658 735L1657 734M1680 734L1681 735L1680 734z"/>
<path style="fill:#f15b5f; stroke:none;" d="M1694 734L1695 735L1694 734M1134 735L1135 736L1134 735z"/>
<path style="fill:#f79d9f; stroke:none;" d="M1141 735L1142 736L1141 735M1156 735L1157 736L1156 735M1165 735L1166 736L1165 735M1174 735L1175 736L1174 735M1180.33 735.667L1180.67 736.333L1180.33 735.667M1199 735L1200 736L1199 735M1208 735L1209 736L1208 735M1214 735L1215 736L1214 735M1223 735L1224 736L1223 735M1232 735L1233 736L1232 735M1257 735L1258 736L1257 735M1266 735L1267 736L1266 735M1272 735L1273 736L1272 735M1275 735L1276 736L1275 735M1281 735L1282 736L1281 735M1290 735L1291 736L1290 735M1393 735L1394 736L1393 735z"/>
<path style="fill:#f15b5f; stroke:none;" d="M1401 735L1402 736L1401 735M1455 735L1456 736L1455 735M1462 735L1463 736L1462 735z"/>
<path style="fill:#f79d9f; stroke:none;" d="M1488.33 735.667L1488.67 736.333L1488.33 735.667z"/>
<path style="fill:#f15b5f; stroke:none;" d="M1501 735L1502 736L1501 735z"/>
<path style="fill:#f79d9f; stroke:none;" d="M1512 735L1513 736L1512 735z"/>
<path style="fill:#f15b5f; stroke:none;" d="M1513 735L1514 736L1513 735M1580 735L1581 736L1580 735M1587 735L1588 736L1587 735M1618 735L1619 736L1618 735M1625 735L1626 736L1625 735M1673 735L1674 736L1673 735M1681 735L1682 736L1681 735z"/>
<path style="fill:#f79d9f; stroke:none;" d="M1686 735L1687 736L1686 735M1693 735L1694 736L1693 735M1135.33 736.667L1135.67 737.333L1135.33 736.667z"/>
<path style="fill:#f15b5f; stroke:none;" d="M1156 736L1157 737L1156 736z"/>
<path style="fill:#f79d9f; stroke:none;" d="M1159 736L1160 737L1159 736M1193 736L1194 737L1193 736z"/>
<path style="fill:#f15b5f; stroke:none;" d="M1214 736L1215 737L1214 736z"/>
<path style="fill:#f79d9f; stroke:none;" d="M1217 736L1218 737L1217 736M1238 736L1239 737L1238 736M1251 736L1252 737L1251 736z"/>
<path style="fill:#f15b5f; stroke:none;" d="M1272 736L1273 737L1272 736M1275 736L1276 737L1275 736z"/>
<path style="fill:#f79d9f; stroke:none;" d="M1296 736L1297 737L1296 736M1354 736L1354 737L1374 737L1374 742L1354 742C1357.05 743.278 1379.14 744.558 1373.95 737.599C1371.15 733.841 1358.3 736 1354 736z"/>
<path style="fill:#f15b5f; stroke:none;" d="M1374 736L1375 737L1374 736z"/>
<path style="fill:#f79d9f; stroke:none;" d="M1455 736L1455 743L1456 743L1455 736M1502 736L1503 737L1502 736M1515.67 736.333L1516.33 736.667L1515.67 736.333z"/>
<path style="fill:#f15b5f; stroke:none;" d="M1517 736L1518 737L1517 736z"/>
<path style="fill:#f79d9f; stroke:none;" d="M1542 736L1542 737L1562 737L1542 736M1580 736L1580 743L1581 743L1580 736M1618 736L1618 743L1619 743L1618 736M1651.33 736.667L1651.67 737.333L1651.33 736.667M1674 736L1675 737L1674 736z"/>
<path style="fill:#f15b5f; stroke:none;" d="M1685 736L1686 737L1685 736M1142 737L1143 738L1142 737M1149 737L1150 738L1149 737M1159 737L1160 738L1159 737M1166 737L1167 738L1166 737z"/>
<path style="fill:#f79d9f; stroke:none;" d="M1173.33 737.667L1173.67 738.333L1173.33 737.667z"/>
<path style="fill:#f15b5f; stroke:none;" d="M1193 737L1194 738L1193 737M1200 737L1201 738L1200 737M1207 737L1208 738L1207 737M1224 737L1225 738L1224 737M1231 737L1232 738L1231 737M1238 737L1239 738L1238 737M1251 737L1252 738L1251 737M1258 737L1259 738L1258 737M1265 737L1266 738L1265 737M1282 737L1283 738L1282 737M1289 737L1290 738L1289 737M1296 737L1297 738L1296 737M1394 737L1395 738L1394 737z"/>
<path style="fill:#f79d9f; stroke:none;" d="M1402 737L1403 738L1402 737z"/>
<path style="fill:#f15b5f; stroke:none;" d="M1488 737L1488 742L1489 742L1488 737M1495 737L1495 742L1496 742L1495 737z"/>
<path style="fill:#f79d9f; stroke:none;" d="M1519 737L1520 738L1519 737z"/>
<path style="fill:#f15b5f; stroke:none;" d="M1520 737L1521 738L1520 737M1562 737L1562 742L1563 742L1562 737M1658 737L1658 742L1659 742L1658 737z"/>
<path style="fill:#f79d9f; stroke:none;" d="M1682 737L1683 738L1682 737z"/>
<path style="fill:#f15b5f; stroke:none;" d="M1692 737L1693 738L1692 737z"/>
<path style="fill:#f79d9f; stroke:none;" d="M1142 738L1143 739L1142 738M1149 738L1150 739L1149 738M1155 738L1156 739L1155 738M1166 738L1167 739L1166 738M1179 738L1180 739L1179 738M1200 738L1201 739L1200 738M1207 738L1208 739L1207 738M1213 738L1214 739L1213 738M1218.33 738.667L1218.67 739.333L1218.33 738.667M1224 738L1225 739L1224 738M1231 738L1232 739L1231 738M1258 738L1259 739L1258 738M1265 738L1266 739L1265 738M1271 738L1272 739L1271 738M1276 738L1277 739L1276 738M1282 738L1283 739L1282 738M1289 738L1290 739L1289 738z"/>
<path style="fill:#f15b5f; stroke:none;" d="M1395 738L1396 739L1395 738z"/>
<path style="fill:#f79d9f; stroke:none;" d="M1403 738L1404 739L1403 738M1504 738L1505 739L1504 738M1522 738L1523 739L1522 738z"/>
<path style="fill:#f15b5f; stroke:none;" d="M1651 738L1651 742L1652 742L1651 738M1675 738L1676 739L1675 738M1683 738L1684 739L1683 738z"/>
<path style="fill:#f79d9f; stroke:none;" d="M1684 738L1685 739L1684 738M1691 738L1692 739L1691 738M1136 739L1137 740L1136 739z"/>
<path style="fill:#f15b5f; stroke:none;" d="M1155 739L1156 740L1155 739z"/>
<path style="fill:#f79d9f; stroke:none;" d="M1160 739L1161 740L1160 739z"/>
<path style="fill:#f15b5f; stroke:none;" d="M1179 739L1180 740L1179 739z"/>
<path style="fill:#f79d9f; stroke:none;" d="M1194 739L1195 740L1194 739z"/>
<path style="fill:#f15b5f; stroke:none;" d="M1213 739L1214 740L1213 739z"/>
<path style="fill:#f79d9f; stroke:none;" d="M1237 739L1238 740L1237 739M1252 739L1253 740L1252 739z"/>
<path style="fill:#f15b5f; stroke:none;" d="M1271 739L1272 740L1271 739M1276 739L1277 740L1276 739z"/>
<path style="fill:#f79d9f; stroke:none;" d="M1295 739L1296 740L1295 739M1396 739L1397 740L1396 739z"/>
<path style="fill:#f15b5f; stroke:none;" d="M1404 739L1405 740L1404 739z"/>
<path style="fill:#f79d9f; stroke:none;" d="M1505 739L1506 740L1505 739M1524 739L1525 740L1524 739M1586 739L1587 740L1586 739M1624 739L1625 740L1624 739M1676 739L1677 740L1676 739z"/>
<path style="fill:#f15b5f; stroke:none;" d="M1136 740L1137 741L1136 740M1143 740L1144 741L1143 740M1148 740L1149 741L1148 740M1160 740L1161 741L1160 740M1167 740L1168 741L1167 740z"/>
<path style="fill:#f79d9f; stroke:none;" d="M1172.33 740.667L1172.67 741.333L1172.33 740.667z"/>
<path style="fill:#f15b5f; stroke:none;" d="M1194 740L1195 741L1194 740M1201 740L1202 741L1201 740M1206 740L1207 741L1206 740M1225 740L1226 741L1225 740M1230 740L1231 741L1230 740M1252 740L1253 741L1252 740z"/>
<path style="fill:#f79d9f; stroke:none;" d="M1259.33 740.667L1259.67 741.333L1259.33 740.667z"/>
<path style="fill:#f15b5f; stroke:none;" d="M1264 740L1265 741L1264 740M1283 740L1284 741L1283 740M1288 740L1289 741L1288 740M1295 740L1296 741L1295 740z"/>
<path style="fill:#f79d9f; stroke:none;" d="M1397 740L1398 741L1397 740M1507 740L1508 741L1507 740M1525 740L1526 741L1525 740M1677 740L1678 741L1677 740z"/>
<path style="fill:#f15b5f; stroke:none;" d="M1690 740L1691 741L1690 740z"/>
<path style="fill:#f79d9f; stroke:none;" d="M1143 741L1144 742L1143 741M1148 741L1149 742L1148 741M1154 741L1155 742L1154 741M1167 741L1168 742L1167 741M1178 741L1179 742L1178 741M1201 741L1202 742L1201 741M1206 741L1207 742L1206 741M1212 741L1213 742L1212 741M1219.33 741.667L1219.67 742.333L1219.33 741.667M1225 741L1226 742L1225 741M1230 741L1231 742L1230 741M1236 741L1237 742L1236 741M1264 741L1265 742L1264 741M1270 741L1271 742L1270 741M1277 741L1278 742L1277 741M1283 741L1284 742L1283 741M1288 741L1289 742L1288 741M1405 741L1406 742L1405 741z"/>
<path style="fill:#f15b5f; stroke:none;" d="M1509 741L1510 742L1509 741z"/>
<path style="fill:#f79d9f; stroke:none;" d="M1510 741L1511 742L1510 741z"/>
<path style="fill:#f15b5f; stroke:none;" d="M1677 741L1678 742L1677 741z"/>
<path style="fill:#f79d9f; stroke:none;" d="M1689 741L1690 742L1689 741M1137 742L1138 743L1137 742M1161 742L1162 743L1161 742z"/>
<path style="fill:#f15b5f; stroke:none;" d="M1178 742L1179 743L1178 742z"/>
<path style="fill:#f79d9f; stroke:none;" d="M1195 742L1196 743L1195 742z"/>
<path style="fill:#f15b5f; stroke:none;" d="M1212 742L1213 743L1212 742M1236 742L1237 743L1236 742z"/>
<path style="fill:#f79d9f; stroke:none;" d="M1253 742L1254 743L1253 742z"/>
<path style="fill:#f15b5f; stroke:none;" d="M1270 742L1271 743L1270 742M1277 742L1278 743L1277 742z"/>
<path style="fill:#f79d9f; stroke:none;" d="M1294 742L1295 743L1294 742z"/>
<path style="fill:#f15b5f; stroke:none;" d="M1374 742L1375 743L1374 742M1398 742L1399 743L1398 742z"/>
<path style="fill:#f79d9f; stroke:none;" d="M1406 742L1407 743L1406 742M1488.33 742.667L1488.67 743.333L1488.33 742.667z"/>
<path style="fill:#f15b5f; stroke:none;" d="M1512.67 742.333L1513.33 742.667L1512.67 742.333z"/>
<path style="fill:#f79d9f; stroke:none;" d="M1514 742L1515 743L1514 742M1527 742L1528 743L1527 742M1542 742L1542 743L1562 743L1542 742M1651.33 742.667L1651.67 743.333L1651.33 742.667M1678 742L1679 743L1678 742M1688 742L1689 743L1688 742z"/>
<path style="fill:#f15b5f; stroke:none;" d="M1137 743L1138 744L1137 743M1144 743L1145 744L1144 743M1147 743L1148 744L1147 743z"/>
<path style="fill:#f79d9f; stroke:none;" d="M1153.33 743.667L1153.67 744.333L1153.33 743.667z"/>
<path style="fill:#f15b5f; stroke:none;" d="M1161 743L1162 744L1161 743M1168 743L1169 744L1168 743z"/>
<path style="fill:#f79d9f; stroke:none;" d="M1171 743L1172 744L1171 743z"/>
<path style="fill:#f15b5f; stroke:none;" d="M1195 743L1196 744L1195 743M1202 743L1203 744L1202 743M1205 743L1206 744L1205 743M1226 743L1227 744L1226 743M1229 743L1230 744L1229 743M1253 743L1254 744L1253 743z"/>
<path style="fill:#f79d9f; stroke:none;" d="M1260.33 743.667L1260.67 744.333L1260.33 743.667z"/>
<path style="fill:#f15b5f; stroke:none;" d="M1263 743L1264 744L1263 743M1284 743L1285 744L1284 743M1287 743L1288 744L1287 743M1354 743L1354 753L1355 753L1354 743z"/>
<path style="fill:#f79d9f; stroke:none;" d="M1399 743L1400 744L1399 743z"/>
<path style="fill:#f15b5f; stroke:none;" d="M1407 743L1408 744L1407 743M1455 743L1456 744L1455 743M1462 743L1463 744L1462 743z"/>
<path style="fill:#f79d9f; stroke:none;" d="M1517.67 743.333L1518.33 743.667L1517.67 743.333z"/>
<path style="fill:#f15b5f; stroke:none;" d="M1528 743L1529 744L1528 743M1580.33 743.667L1580.67 744.333L1580.33 743.667M1587 743L1588 744L1587 743M1618.33 743.667L1618.67 744.333L1618.33 743.667M1625 743L1626 744L1625 743z"/>
<path style="fill:#f79d9f; stroke:none;" d="M1679 743L1680 744L1679 743z"/>
<path style="fill:#f15b5f; stroke:none;" d="M1688 743L1689 744L1688 743z"/>
<path style="fill:#f79d9f; stroke:none;" d="M1144 744L1145 745L1144 744M1147 744L1148 745L1147 744M1168 744L1169 745L1168 744M1177 744L1178 745L1177 744M1202 744L1203 745L1202 744M1205 744L1206 745L1205 744M1211 744L1212 745L1211 744M1220.33 744.667L1220.67 745.333L1220.33 744.667M1226 744L1227 745L1226 744M1229 744L1230 745L1229 744M1235 744L1236 745L1235 744M1254.33 744.667L1254.67 745.333L1254.33 744.667M1263 744L1264 745L1263 744M1269 744L1270 745L1269 744M1278 744L1279 745L1278 744M1284 744L1285 745L1284 744M1287 744L1288 745L1287 744M1293.33 744.667L1293.67 745.333L1293.33 744.667M1400 744L1401 745L1400 744z"/>
<path style="fill:#f15b5f; stroke:none;" d="M1408 744L1409 745L1408 744z"/>
<path style="fill:#f79d9f; stroke:none;" d="M1462 744L1463 745L1462 744M1494.33 744.667L1494.67 745.333L1494.33 744.667z"/>
<path style="fill:#f15b5f; stroke:none;" d="M1519 744L1520 745L1519 744z"/>
<path style="fill:#f79d9f; stroke:none;" d="M1520 744L1521 745L1520 744M1528 744L1529 745L1528 744M1587 744L1588 745L1587 744M1625 744L1626 745L1625 744M1657 744L1658 745L1657 744M1687 744L1688 745L1687 744M1138 745L1139 746L1138 745M1162 745L1163 746L1162 745z"/>
<path style="fill:#f15b5f; stroke:none;" d="M1170 745L1169 747L1170 745M1177 745L1178 746L1177 745z"/>
<path style="fill:#f79d9f; stroke:none;" d="M1196 745L1197 746L1196 745z"/>
<path style="fill:#f15b5f; stroke:none;" d="M1211 745L1212 746L1211 745M1235 745L1236 746L1235 745M1269 745L1270 746L1269 745M1278 745L1279 746L1278 745M1487 745L1488 746L1487 745M1521 745L1522 746L1521 745z"/>
<path style="fill:#f79d9f; stroke:none;" d="M1650 745L1651 746L1650 745z"/>
<path style="fill:#f15b5f; stroke:none;" d="M1657 745L1658 746L1657 745M1680 745L1681 746L1680 745z"/>
<path style="fill:#f79d9f; stroke:none;" d="M1686 745L1687 746L1686 745z"/>
<path style="fill:#f15b5f; stroke:none;" d="M1138 746L1139 747L1138 746M1145.67 746.333L1146.33 746.667L1145.67 746.333z"/>
<path style="fill:#f79d9f; stroke:none;" d="M1152.33 746.667L1152.67 747.333L1152.33 746.667z"/>
<path style="fill:#f15b5f; stroke:none;" d="M1162 746L1163 747L1162 746z"/>
<path style="fill:#f79d9f; stroke:none;" d="M1170 746L1171 747L1170 746z"/>
<path style="fill:#f15b5f; stroke:none;" d="M1196 746L1197 747L1196 746M1203.67 746.333L1204.33 746.667L1203.67 746.333M1227 746L1228 747L1227 746z"/>
<path style="fill:#f79d9f; stroke:none;" d="M1228 746L1227 748L1229 748L1228 746M1261 746L1263 748L1261 746z"/>
<path style="fill:#f15b5f; stroke:none;" d="M1262 746L1263 747L1262 746M1285.67 746.333L1286.33 746.667L1285.67 746.333M1401 746L1402 747L1401 746z"/>
<path style="fill:#f79d9f; stroke:none;" d="M1409 746L1410 747L1409 746M1456 746L1457 747L1456 746M1463 746L1464 747L1463 746M1522 746L1523 747L1522 746M1581 746L1582 747L1581 746z"/>
<path style="fill:#f15b5f; stroke:none;" d="M1588 746L1589 747L1588 746z"/>
<path style="fill:#f79d9f; stroke:none;" d="M1619 746L1620 747L1619 746M1626 746L1627 747L1626 746M1681 746L1682 747L1681 746z"/>
<path style="fill:#f15b5f; stroke:none;" d="M1686 746L1687 747L1686 746z"/>
<path style="fill:#f79d9f; stroke:none;" d="M1145.67 747.333L1146.33 747.667L1145.67 747.333M1169 747L1170 748L1169 747M1176 747L1177 748L1176 747M1203.67 747.333L1204.33 747.667L1203.67 747.333M1210 747L1211 748L1210 747M1221.33 747.667L1221.67 748.333L1221.33 747.667M1234 747L1235 748L1234 747M1255 747L1256 748L1255 747M1268 747L1269 748L1268 747M1279 747L1280 748L1279 747M1285.67 747.333L1286.33 747.667L1285.67 747.333M1292 747L1293 748L1292 747z"/>
<path style="fill:#f15b5f; stroke:none;" d="M1402 747L1403 748L1402 747M1456 747L1457 748L1456 747M1486 747L1487 748L1486 747z"/>
<path style="fill:#f79d9f; stroke:none;" d="M1493 747L1494 748L1493 747z"/>
<path style="fill:#f15b5f; stroke:none;" d="M1522 747L1522 750L1523 750L1522 747M1529.33 747.667L1529.67 748.333L1529.33 747.667M1581 747L1582 748L1581 747M1619 747L1620 748L1619 747z"/>
<path style="fill:#f79d9f; stroke:none;" d="M1649 747L1650 748L1649 747M1656 747L1657 748L1656 747M1685 747L1686 748L1685 747M1139 748L1140 749L1139 748M1163 748L1164 749L1163 748z"/>
<path style="fill:#f15b5f; stroke:none;" d="M1176 748L1177 749L1176 748z"/>
<path style="fill:#f79d9f; stroke:none;" d="M1197 748L1198 749L1197 748z"/>
<path style="fill:#f15b5f; stroke:none;" d="M1210 748L1211 749L1210 748M1234 748L1235 749L1234 748M1255 748L1256 749L1255 748M1268 748L1269 749L1268 748M1279 748L1280 749L1279 748M1292 748L1293 749L1292 748z"/>
<path style="fill:#f79d9f; stroke:none;" d="M1403 748L1404 749L1403 748M1457 748L1458 749L1457 748M1464 748L1465 749L1464 748z"/>
<path style="fill:#f15b5f; stroke:none;" d="M1493 748L1494 749L1493 748z"/>
<path style="fill:#f79d9f; stroke:none;" d="M1502 748L1503 749L1502 748z"/>
<path style="fill:#f15b5f; stroke:none;" d="M1503 748L1504 749L1503 748z"/>
<path style="fill:#f79d9f; stroke:none;" d="M1589 748L1590 749L1589 748M1611.67 748.333L1612.33 748.667L1611.67 748.333M1620 748L1621 749L1620 748M1627 748L1628 749L1627 748z"/>
<path style="fill:#f15b5f; stroke:none;" d="M1648 748L1649 749L1648 748M1656 748L1657 749L1656 748M1682 748L1683 749L1682 748z"/>
<path style="fill:#f79d9f; stroke:none;" d="M1684 748L1685 749L1684 748z"/>
<path style="fill:#f15b5f; stroke:none;" d="M1139 749L1140 750L1139 749z"/>
<path style="fill:#f79d9f; stroke:none;" d="M1151.33 749.667L1151.67 750.333L1151.33 749.667z"/>
<path style="fill:#f15b5f; stroke:none;" d="M1163 749L1164 750L1163 749z"/>
<path style="fill:#f79d9f; stroke:none;" d="M1404 749L1405 750L1404 749z"/>
<path style="fill:#f15b5f; stroke:none;" d="M1457 749L1458 750L1457 749z"/>
<path style="fill:#f79d9f; stroke:none;" d="M1465 749L1466 750L1465 749M1492 749L1493 750L1492 749z"/>
<path style="fill:#f15b5f; stroke:none;" d="M1501 749L1502 750L1501 749z"/>
<path style="fill:#f79d9f; stroke:none;" d="M1504 749L1505 750L1504 749z"/>
<path style="fill:#f15b5f; stroke:none;" d="M1582 749L1583 750L1582 749z"/>
<path style="fill:#f79d9f; stroke:none;" d="M1590 749L1591 750L1590 749M1610 749L1611 750L1610 749M1613 749L1614 750L1613 749z"/>
<path style="fill:#f15b5f; stroke:none;" d="M1620 749L1621 750L1620 749z"/>
<path style="fill:#f79d9f; stroke:none;" d="M1628 749L1629 750L1628 749M1655 749L1656 750L1655 749M1175 750L1176 751L1175 750M1198 750L1199 751L1198 750M1209 750L1210 751L1209 750M1222 750L1223 751L1222 750M1233 750L1234 751L1233 750M1256 750L1257 751L1256 750M1267 750L1268 751L1267 750M1280 750L1281 751L1280 750M1291 750L1292 751L1291 750M1458 750L1459 751L1458 750M1466 750L1467 751L1466 750M1484 750L1485 751L1484 750z"/>
<path style="fill:#f15b5f; stroke:none;" d="M1492 750L1493 751L1492 750M1500 750L1501 751L1500 750z"/>
<path style="fill:#f79d9f; stroke:none;" d="M1505 750L1506 751L1505 750M1522 750L1523 751L1522 750M1583 750L1584 751L1583 750M1591 750L1592 751L1591 750M1609 750L1610 751L1609 750M1614 750L1615 751L1614 750M1621 750L1622 751L1621 750M1629 750L1630 751L1629 750z"/>
<path style="fill:#f15b5f; stroke:none;" d="M1655 750L1656 751L1655 750z"/>
<path style="fill:#f79d9f; stroke:none;" d="M1140 751L1141 752L1140 751M1164 751L1165 752L1164 751z"/>
<path style="fill:#f15b5f; stroke:none;" d="M1198 751L1199 752L1198 751M1209 751L1210 752L1209 751M1222 751L1223 752L1222 751M1233 751L1234 752L1233 751M1256 751L1257 752L1256 751M1267 751L1268 752L1267 751M1280 751L1281 752L1280 751M1291 751L1292 752L1291 751z"/>
<path style="fill:#f79d9f; stroke:none;" d="M1301 751L1301 752L1308 752L1301 751z"/>
<path style="fill:#f15b5f; stroke:none;" d="M1405 751L1406 752L1405 751z"/>
<path style="fill:#f79d9f; stroke:none;" d="M1467 751L1468 752L1467 751z"/>
<path style="fill:#f15b5f; stroke:none;" d="M1468 751L1469 752L1468 751M1482 751L1483 752L1482 751z"/>
<path style="fill:#f79d9f; stroke:none;" d="M1491 751L1492 752L1491 751z"/>
<path style="fill:#f15b5f; stroke:none;" d="M1507 751L1508 752L1507 751M1521 751L1522 752L1521 751z"/>
<path style="fill:#f79d9f; stroke:none;" d="M1528 751L1529 752L1528 751M1570 751L1570 752L1577 752L1570 751z"/>
<path style="fill:#f15b5f; stroke:none;" d="M1583 751L1584 752L1583 751z"/>
<path style="fill:#f79d9f; stroke:none;" d="M1592 751L1593 752L1592 751z"/>
<path style="fill:#f15b5f; stroke:none;" d="M1607 751L1608 752L1607 751z"/>
<path style="fill:#f79d9f; stroke:none;" d="M1615 751L1616 752L1615 751M1630 751L1631 752L1630 751z"/>
<path style="fill:#f15b5f; stroke:none;" d="M1645 751L1646 752L1645 751z"/>
<path style="fill:#f79d9f; stroke:none;" d="M1654 751L1655 752L1654 751M1150 752L1151 753L1150 752z"/>
<path style="fill:#f15b5f; stroke:none;" d="M1164 752L1165 753L1164 752z"/>
<path style="fill:#f79d9f; stroke:none;" d="M1174.33 752.667L1174.67 753.333L1174.33 752.667z"/>
<path style="fill:#ffffff; stroke:none;" d="M1301 752L1301 759L1308 759L1308 752L1301 752z"/>
<path style="fill:#f15b5f; stroke:none;" d="M1406 752L1407 753L1406 752M1459 752L1460 753L1459 752z"/>
<path style="fill:#f79d9f; stroke:none;" d="M1469 752L1470 753L1469 752z"/>
<path style="fill:#f15b5f; stroke:none;" d="M1480 752L1481 753L1480 752z"/>
<path style="fill:#f79d9f; stroke:none;" d="M1481 752L1482 753L1481 752M1490 752L1491 753L1490 752M1499 752L1500 753L1499 752M1508 752L1509 753L1508 752z"/>
<path style="fill:#f15b5f; stroke:none;" d="M1509 752L1510 753L1509 752M1520 752L1521 753L1520 752M1528 752L1529 753L1528 752z"/>
<path style="fill:#ffffff; stroke:none;" d="M1570 752L1570 759L1577 759L1577 752L1570 752z"/>
<path style="fill:#f15b5f; stroke:none;" d="M1584 752L1585 753L1584 752z"/>
<path style="fill:#f79d9f; stroke:none;" d="M1594 752L1595 753L1594 752z"/>
<path style="fill:#f15b5f; stroke:none;" d="M1605 752L1606 753L1605 752z"/>
<path style="fill:#f79d9f; stroke:none;" d="M1606 752L1607 753L1606 752z"/>
<path style="fill:#f15b5f; stroke:none;" d="M1622 752L1623 753L1622 752z"/>
<path style="fill:#f79d9f; stroke:none;" d="M1632 752L1633 753L1632 752z"/>
<path style="fill:#f15b5f; stroke:none;" d="M1643 752L1644 753L1643 752z"/>
<path style="fill:#f79d9f; stroke:none;" d="M1644 752L1645 753L1644 752M1653 752L1654 753L1653 752M1141.33 753.667L1141.67 754.333L1141.33 753.667z"/>
<path style="fill:#f15b5f; stroke:none;" d="M1150 753L1151 754L1150 753z"/>
<path style="fill:#f79d9f; stroke:none;" d="M1199 753L1200 754L1199 753M1208 753L1209 754L1208 753M1223 753L1224 754L1223 753M1232 753L1233 754L1232 753M1257 753L1258 754L1257 753M1266 753L1267 754L1266 753M1281 753L1282 754L1281 753M1290 753L1291 754L1290 753z"/>
<path style="fill:#f15b5f; stroke:none;" d="M1342 753L1342 759L1343 759L1342 753z"/>
<path style="fill:#f79d9f; stroke:none;" d="M1355 753L1355 754L1377 754L1355 753M1407 753L1408 754L1407 753M1460 753L1461 754L1460 753M1471.67 753.333L1472.33 753.667L1471.67 753.333z"/>
<path style="fill:#f15b5f; stroke:none;" d="M1473 753L1473 754L1478 754L1473 753z"/>
<path style="fill:#f79d9f; stroke:none;" d="M1478 753L1479 754L1478 753z"/>
<path style="fill:#f15b5f; stroke:none;" d="M1499 753L1500 754L1499 753z"/>
<path style="fill:#f79d9f; stroke:none;" d="M1511.67 753.333L1512.33 753.667L1511.67 753.333z"/>
<path style="fill:#f15b5f; stroke:none;" d="M1513 753L1513 754L1518 754L1513 753z"/>
<path style="fill:#f79d9f; stroke:none;" d="M1518 753L1519 754L1518 753M1542 753L1542 754L1564 754L1564 759L1565 759L1565 753L1542 753M1585 753L1586 754L1585 753M1596.67 753.333L1597.33 753.667L1596.67 753.333z"/>
<path style="fill:#f15b5f; stroke:none;" d="M1598 753L1598 754L1602 754L1598 753z"/>
<path style="fill:#f79d9f; stroke:none;" d="M1602.67 753.333L1603.33 753.667L1602.67 753.333M1623 753L1624 754L1623 753M1634.67 753.333L1635.33 753.667L1634.67 753.333z"/>
<path style="fill:#f15b5f; stroke:none;" d="M1636 753L1636 754L1641 754L1636 753z"/>
<path style="fill:#f79d9f; stroke:none;" d="M1641 753L1642 754L1641 753M1165 754L1166 755L1165 754z"/>
<path style="fill:#f15b5f; stroke:none;" d="M1199 754L1200 755L1199 754M1208 754L1209 755L1208 754M1223 754L1224 755L1223 754M1257 754L1258 755L1257 754M1266 754L1267 755L1266 754M1281 754L1282 755L1281 754M1290 754L1291 755L1290 754z"/>
<path style="fill:#f79d9f; stroke:none;" d="M1408 754L1409 755L1408 754M1461 754L1462 755L1461 754z"/>
<path style="fill:#f15b5f; stroke:none;" d="M1500 754L1501 755L1500 754M1527 754L1528 755L1527 754z"/>
<path style="fill:#f79d9f; stroke:none;" d="M1586 754L1587 755L1586 754M1624 754L1625 755L1624 754M1149 755L1150 756L1149 755M1173 755L1174 756L1173 755M1207.33 755.667L1207.67 756.333L1207.33 755.667M1231.33 755.667L1231.67 756.333L1231.33 755.667z"/>
<path style="fill:#f15b5f; stroke:none;" d="M1462 755L1463 756L1462 755z"/>
<path style="fill:#f79d9f; stroke:none;" d="M1487 755L1488 756L1487 755M1502 755L1503 756L1502 755M1526 755L1527 756L1526 755M1587 755L1588 756L1587 755M1612 755L1613 756L1612 755z"/>
<path style="fill:#f15b5f; stroke:none;" d="M1625 755L1626 756L1625 755z"/>
<path style="fill:#f79d9f; stroke:none;" d="M1650 755L1651 756L1650 755M1142 756L1143 757L1142 756z"/>
<path style="fill:#f15b5f; stroke:none;" d="M1149 756L1150 757L1149 756z"/>
<path style="fill:#f79d9f; stroke:none;" d="M1166.33 756.667L1166.67 757.333L1166.33 756.667z"/>
<path style="fill:#f15b5f; stroke:none;" d="M1173 756L1174 757L1173 756z"/>
<path style="fill:#f79d9f; stroke:none;" d="M1200 756L1201 757L1200 756M1224 756L1225 757L1224 756M1258 756L1259 757L1258 756M1265 756L1266 757L1265 756M1282 756L1283 757L1282 756M1289 756L1290 757L1289 756z"/>
<path style="fill:#f15b5f; stroke:none;" d="M1409 756L1410 757L1409 756M1463 756L1464 757L1463 756z"/>
<path style="fill:#f79d9f; stroke:none;" d="M1464 756L1465 757L1464 756M1486 756L1487 757L1486 756M1503 756L1504 757L1503 756z"/>
<path style="fill:#f15b5f; stroke:none;" d="M1525 756L1526 757L1525 756M1588 756L1589 757L1588 756M1611 756L1612 757L1611 756M1626 756L1627 757L1626 756z"/>
<path style="fill:#f79d9f; stroke:none;" d="M1649 756L1650 757L1649 756z"/>
<path style="fill:#f15b5f; stroke:none;" d="M1142 757L1143 758L1142 757M1200 757L1201 758L1200 757M1224 757L1225 758L1224 757M1258 757L1259 758L1258 757M1265 757L1266 758L1265 757M1282 757L1283 758L1282 757M1289 757L1290 758L1289 757M1410 757L1411 758L1410 757M1465 757L1466 758L1465 757z"/>
<path style="fill:#f79d9f; stroke:none;" d="M1484 757L1485 758L1484 757M1505 757L1506 758L1505 757z"/>
<path style="fill:#f15b5f; stroke:none;" d="M1524 757L1525 758L1524 757z"/>
<path style="fill:#f79d9f; stroke:none;" d="M1590 757L1591 758L1590 757M1609 757L1610 758L1609 757z"/>
<path style="fill:#f15b5f; stroke:none;" d="M1628 757L1629 758L1628 757z"/>
<path style="fill:#f79d9f; stroke:none;" d="M1647 757L1648 758L1647 757M1148 758L1144 759L1144 760L1149 759L1148 758M1172 758L1168 759L1168 760L1173 759L1172 758M1206 758L1202 759L1202 760L1207 759L1206 758M1230 758L1226 759L1226 760L1231 759L1230 758M1411 758L1412 759L1411 758z"/>
<path style="fill:#f15b5f; stroke:none;" d="M1467 758L1468 759L1467 758z"/>
<path style="fill:#f79d9f; stroke:none;" d="M1468 758L1469 759L1468 758M1482 758L1483 759L1482 758z"/>
<path style="fill:#f15b5f; stroke:none;" d="M1507 758L1508 759L1507 758z"/>
<path style="fill:#f79d9f; stroke:none;" d="M1508 758L1509 759L1508 758M1521 758L1522 759L1521 758z"/>
<path style="fill:#f15b5f; stroke:none;" d="M1522 758L1523 759L1522 758z"/>
<path style="fill:#f79d9f; stroke:none;" d="M1592.67 758.333L1593.33 758.667L1592.67 758.333M1607 758L1608 759L1607 758z"/>
<path style="fill:#f15b5f; stroke:none;" d="M1630 758L1631 759L1630 758z"/>
<path style="fill:#f79d9f; stroke:none;" d="M1631 758L1632 759L1631 758M1645 758L1646 759L1645 758z"/>
<path style="fill:#f15b5f; stroke:none;" d="M1143 759L1144 760L1143 759M1148 759L1149 760L1148 759M1167 759L1168 760L1167 759M1172 759L1173 760L1172 759M1201 759L1202 760L1201 759M1206 759L1207 760L1206 759M1225 759L1226 760L1225 759M1230 759L1231 760L1230 759M1259 759L1260 760L1259 759z"/>
<path style="fill:#f79d9f; stroke:none;" d="M1260 759L1260 760L1264 760L1260 759z"/>
<path style="fill:#f15b5f; stroke:none;" d="M1264 759L1265 760L1264 759M1283 759L1284 760L1283 759z"/>
<path style="fill:#f79d9f; stroke:none;" d="M1284 759L1284 760L1288 760L1284 759z"/>
<path style="fill:#f15b5f; stroke:none;" d="M1288 759L1289 760L1288 759M1301 759L1301 760L1308 760L1301 759M1315 759L1315 760L1342 760L1315 759M1348 759L1348 760L1377 760L1348 759M1384 759L1384 760L1389 760L1384 759M1412 759L1412 760L1417 760L1412 759M1435 759L1435 760L1441 760L1435 759M1470 759L1471 760L1470 759z"/>
<path style="fill:#f79d9f; stroke:none;" d="M1471 759L1471 760L1475 760L1471 759M1476 759L1476 760L1480 760L1476 759z"/>
<path style="fill:#f15b5f; stroke:none;" d="M1480 759L1481 760L1480 759M1510.67 759.333L1511.33 759.667L1510.67 759.333z"/>
<path style="fill:#f79d9f; stroke:none;" d="M1512 759L1512 760L1519 760L1512 759z"/>
<path style="fill:#f15b5f; stroke:none;" d="M1519 759L1520 760L1519 759M1536 759L1536 760L1565 760L1536 759M1570 759L1570 760L1577 760L1570 759M1595 759L1596 760L1595 759z"/>
<path style="fill:#f79d9f; stroke:none;" d="M1596 759L1596 760L1599 760L1596 759M1600 759L1600 760L1604 760L1600 759z"/>
<path style="fill:#f15b5f; stroke:none;" d="M1604 759L1605 760L1604 759M1633 759L1634 760L1633 759z"/>
<path style="fill:#f79d9f; stroke:none;" d="M1634 759L1634 760L1638 760L1634 759M1639 759L1639 760L1642 760L1639 759z"/>
<path style="fill:#f15b5f; stroke:none;" d="M1642.67 759.333L1643.33 759.667L1642.67 759.333M1665 759L1665 760L1671 760L1665 759M1697 759L1697 760L1702 760L1697 759z"/>
</svg>
