<svg data-v-423bf9ae="" xmlns="http://www.w3.org/2000/svg" viewBox="0 0 319.7890615113516 60" class="font"><!----><!----><defs data-v-423bf9ae=""><linearGradient data-v-423bf9ae="" gradientTransform="rotate(25)" id="56f72ea9-325a-4a79-a744-96ce263cfe8a" x1="0%" y1="0%" x2="100%" y2="0%"><stop data-v-423bf9ae="" offset="0%" style="stop-color: rgb(0, 118, 221); stop-opacity: 1;"></stop><stop data-v-423bf9ae="" offset="100%" style="stop-color: rgb(0, 205, 233); stop-opacity: 1;"></stop></linearGradient></defs><g data-v-423bf9ae="" id="84ef0bbd-7498-46d4-8eae-ddf8b954b262" fill="url(#56f72ea9-325a-4a79-a744-96ce263cfe8a)" transform="matrix(5.7526364568010235,0,0,5.7526364568010235,-6.442945569794119,-1.6107389002153774)"><path d="M1.12 0.49L1.12 0.49L1.12 10.50L6.30 10.50L6.30 8.50L3.12 8.50L3.12 0.49L1.12 0.49ZM13.20 10.50L13.20 10.50L13.20 8.50L10.02 8.50L10.02 6.50L12.66 6.50L12.66 4.49L10.02 4.49L10.02 2.49L13.03 2.49L13.03 0.49L8.02 0.49L8.02 10.50L13.20 10.50ZM17.08 5.05L17.08 5.05L22.15 10.71L22.68 10.71L22.68 0.50L20.66 0.50L20.66 6.16L15.61 0.28L15.08 0.28L15.08 10.50L17.08 10.50L17.08 5.05ZM28.59 10.50L28.59 2.49L31.08 2.49L31.08 0.50L24.09 0.50L24.09 2.49L26.59 2.49L26.59 10.50L28.59 10.50L28.59 10.50ZM37.09 10.64L37.09 10.64C43.97 10.64 43.97 0.32 37.09 0.32C30.20 0.32 30.20 10.64 37.09 10.64ZM37.09 8.57L37.09 8.57C33.08 8.57 33.08 2.38 37.09 2.38C41.09 2.38 41.09 8.57 37.09 8.57ZM43.67 9.86C45.02 10.56 46.27 10.63 46.83 10.58C48.71 10.49 49.85 9.21 49.85 7.55C49.85 5.95 48.51 5.05 46.96 4.48C46.38 4.28 45.89 4.03 45.84 3.47C45.79 2.91 46.12 2.39 46.83 2.35C47.14 2.34 47.77 2.32 48.87 2.77L49.13 0.84C47.84 0.39 47.15 0.39 46.63 0.42C44.97 0.50 43.81 1.79 43.81 3.47C43.81 5.15 45.21 5.95 46.77 6.52C47.33 6.72 47.77 6.97 47.81 7.55C47.87 8.09 47.36 8.51 46.77 8.55C46.31 8.60 45.07 8.57 43.92 7.76L43.67 9.86L43.67 9.86ZM56.71 10.50L56.71 10.50L56.71 8.50L53.54 8.50L53.54 6.50L56.17 6.50L56.17 4.49L53.54 4.49L53.54 2.49L56.55 2.49L56.55 0.49L51.53 0.49L51.53 10.50L56.71 10.50Z"></path></g><!----><!----></svg>